<svg width="500" height="500" viewBox="0 0 500 500" fill="none" xmlns="http://www.w3.org/2000/svg">
<g clip-path="url(#clip0_219_2)">
<path d="M500 0H0V500H500V0Z" fill="#060023"/>
<g filter="url(#filter0_f_219_2)">
<path d="M0 545C24.8528 545 45 524.853 45 500C45 475.147 24.8528 455 0 455C-24.8528 455 -45 475.147 -45 500C-45 524.853 -24.8528 545 0 545Z" fill="#4B0082"/>
</g>
<g filter="url(#filter1_f_219_2)">
<path d="M500 83C545.84 83 583 45.8396 583 0C583 -45.8396 545.84 -83 500 -83C454.16 -83 417 -45.8396 417 0C417 45.8396 454.16 83 500 83Z" fill="#4B0082"/>
</g>
<g filter="url(#filter2_f_219_2)">
<path d="M500 583C545.84 583 583 545.84 583 500C583 454.16 545.84 417 500 417C454.16 417 417 454.16 417 500C417 545.84 454.16 583 500 583Z" fill="#4B0082"/>
</g>
<g filter="url(#filter3_f_219_2)">
<path d="M200 550C227.614 550 250 527.614 250 500C250 472.386 227.614 450 200 450C172.386 450 150 472.386 150 500C150 527.614 172.386 550 200 550Z" fill="#9932CC"/>
</g>
<g filter="url(#filter4_f_219_2)">
<path d="M432 130C461.271 130 485 106.271 485 77C485 47.7289 461.271 24 432 24C402.729 24 379 47.7289 379 77C379 106.271 402.729 130 432 130Z" fill="#9932CC"/>
</g>
<g filter="url(#filter5_f_219_2)">
<path d="M250 300C277.614 300 300 277.614 300 250C300 222.386 277.614 200 250 200C222.386 200 200 222.386 200 250C200 277.614 222.386 300 250 300Z" fill="#800080"/>
</g>
<g filter="url(#filter6_f_219_2)">
<path d="M113 180C140.614 180 163 157.614 163 130C163 102.386 140.614 80 113 80C85.3858 80 63 102.386 63 130C63 157.614 85.3858 180 113 180Z" fill="#4B0082"/>
</g>
<g filter="url(#filter7_f_219_2)">
<path d="M200 50C227.614 50 250 27.6142 250 0C250 -27.6142 227.614 -50 200 -50C172.386 -50 150 -27.6142 150 0C150 27.6142 172.386 50 200 50Z" fill="#9932CC"/>
</g>
<g filter="url(#filter8_f_219_2)">
<path d="M392.5 357C424.256 357 450 331.256 450 299.5C450 267.744 424.256 242 392.5 242C360.744 242 335 267.744 335 299.5C335 331.256 360.744 357 392.5 357Z" fill="#9932CC"/>
</g>
<g filter="url(#filter9_f_219_2)">
<path d="M1.5 461C35.4655 461 63 433.466 63 399.5C63 365.534 35.4655 338 1.5 338C-32.4655 338 -60 365.534 -60 399.5C-60 433.466 -32.4655 461 1.5 461Z" fill="#800080"/>
</g>
<g filter="url(#filter10_f_219_2)">
<path d="M438 187C460.091 187 478 169.091 478 147C478 124.909 460.091 107 438 107C415.909 107 398 124.909 398 147C398 169.091 415.909 187 438 187Z" fill="#9932CC"/>
</g>
<g filter="url(#filter11_f_219_2)">
<path d="M0 46C24.8528 46 45 25.8528 45 1C45 -23.8528 24.8528 -44 0 -44C-24.8528 -44 -45 -23.8528 -45 1C-45 25.8528 -24.8528 46 0 46Z" fill="#4B0082"/>
</g>
<g filter="url(#filter12_f_219_2)">
<path d="M150 330C183.137 330 210 303.137 210 270C210 236.863 183.137 210 150 210C116.863 210 90 236.863 90 270C90 303.137 116.863 330 150 330Z" fill="#800080"/>
</g>
</g>
<defs>
<filter id="filter0_f_219_2" x="-85" y="415" width="170" height="170" filterUnits="userSpaceOnUse" color-interpolation-filters="sRGB">
<feFlood flood-opacity="0" result="BackgroundImageFix"/>
<feBlend mode="normal" in="SourceGraphic" in2="BackgroundImageFix" result="shape"/>
<feGaussianBlur stdDeviation="20" result="effect1_foregroundBlur_219_2"/>
</filter>
<filter id="filter1_f_219_2" x="377" y="-123" width="246" height="246" filterUnits="userSpaceOnUse" color-interpolation-filters="sRGB">
<feFlood flood-opacity="0" result="BackgroundImageFix"/>
<feBlend mode="normal" in="SourceGraphic" in2="BackgroundImageFix" result="shape"/>
<feGaussianBlur stdDeviation="20" result="effect1_foregroundBlur_219_2"/>
</filter>
<filter id="filter2_f_219_2" x="377" y="377" width="246" height="246" filterUnits="userSpaceOnUse" color-interpolation-filters="sRGB">
<feFlood flood-opacity="0" result="BackgroundImageFix"/>
<feBlend mode="normal" in="SourceGraphic" in2="BackgroundImageFix" result="shape"/>
<feGaussianBlur stdDeviation="20" result="effect1_foregroundBlur_219_2"/>
</filter>
<filter id="filter3_f_219_2" x="110" y="410" width="180" height="180" filterUnits="userSpaceOnUse" color-interpolation-filters="sRGB">
<feFlood flood-opacity="0" result="BackgroundImageFix"/>
<feBlend mode="normal" in="SourceGraphic" in2="BackgroundImageFix" result="shape"/>
<feGaussianBlur stdDeviation="20" result="effect1_foregroundBlur_219_2"/>
</filter>
<filter id="filter4_f_219_2" x="339" y="-16" width="186" height="186" filterUnits="userSpaceOnUse" color-interpolation-filters="sRGB">
<feFlood flood-opacity="0" result="BackgroundImageFix"/>
<feBlend mode="normal" in="SourceGraphic" in2="BackgroundImageFix" result="shape"/>
<feGaussianBlur stdDeviation="20" result="effect1_foregroundBlur_219_2"/>
</filter>
<filter id="filter5_f_219_2" x="160" y="160" width="180" height="180" filterUnits="userSpaceOnUse" color-interpolation-filters="sRGB">
<feFlood flood-opacity="0" result="BackgroundImageFix"/>
<feBlend mode="normal" in="SourceGraphic" in2="BackgroundImageFix" result="shape"/>
<feGaussianBlur stdDeviation="20" result="effect1_foregroundBlur_219_2"/>
</filter>
<filter id="filter6_f_219_2" x="23" y="40" width="180" height="180" filterUnits="userSpaceOnUse" color-interpolation-filters="sRGB">
<feFlood flood-opacity="0" result="BackgroundImageFix"/>
<feBlend mode="normal" in="SourceGraphic" in2="BackgroundImageFix" result="shape"/>
<feGaussianBlur stdDeviation="20" result="effect1_foregroundBlur_219_2"/>
</filter>
<filter id="filter7_f_219_2" x="110" y="-90" width="180" height="180" filterUnits="userSpaceOnUse" color-interpolation-filters="sRGB">
<feFlood flood-opacity="0" result="BackgroundImageFix"/>
<feBlend mode="normal" in="SourceGraphic" in2="BackgroundImageFix" result="shape"/>
<feGaussianBlur stdDeviation="20" result="effect1_foregroundBlur_219_2"/>
</filter>
<filter id="filter8_f_219_2" x="295" y="202" width="195" height="195" filterUnits="userSpaceOnUse" color-interpolation-filters="sRGB">
<feFlood flood-opacity="0" result="BackgroundImageFix"/>
<feBlend mode="normal" in="SourceGraphic" in2="BackgroundImageFix" result="shape"/>
<feGaussianBlur stdDeviation="20" result="effect1_foregroundBlur_219_2"/>
</filter>
<filter id="filter9_f_219_2" x="-100" y="298" width="203" height="203" filterUnits="userSpaceOnUse" color-interpolation-filters="sRGB">
<feFlood flood-opacity="0" result="BackgroundImageFix"/>
<feBlend mode="normal" in="SourceGraphic" in2="BackgroundImageFix" result="shape"/>
<feGaussianBlur stdDeviation="20" result="effect1_foregroundBlur_219_2"/>
</filter>
<filter id="filter10_f_219_2" x="358" y="67" width="160" height="160" filterUnits="userSpaceOnUse" color-interpolation-filters="sRGB">
<feFlood flood-opacity="0" result="BackgroundImageFix"/>
<feBlend mode="normal" in="SourceGraphic" in2="BackgroundImageFix" result="shape"/>
<feGaussianBlur stdDeviation="20" result="effect1_foregroundBlur_219_2"/>
</filter>
<filter id="filter11_f_219_2" x="-85" y="-84" width="170" height="170" filterUnits="userSpaceOnUse" color-interpolation-filters="sRGB">
<feFlood flood-opacity="0" result="BackgroundImageFix"/>
<feBlend mode="normal" in="SourceGraphic" in2="BackgroundImageFix" result="shape"/>
<feGaussianBlur stdDeviation="20" result="effect1_foregroundBlur_219_2"/>
</filter>
<filter id="filter12_f_219_2" x="50" y="170" width="200" height="200" filterUnits="userSpaceOnUse" color-interpolation-filters="sRGB">
<feFlood flood-opacity="0" result="BackgroundImageFix"/>
<feBlend mode="normal" in="SourceGraphic" in2="BackgroundImageFix" result="shape"/>
<feGaussianBlur stdDeviation="20" result="effect1_foregroundBlur_219_2"/>
</filter>
<clipPath id="clip0_219_2">
<rect width="500" height="500" fill="white"/>
</clipPath>
</defs>
</svg>
